<svg viewBox="0 0 317.91 60.89" xmlns:xlink="http://www.w3.org/1999/xlink" xmlns="http://www.w3.org/2000/svg"><defs><style>.cls-1{fill:#0c5e9b;}.cls-2{fill:url(#未命名的渐变_18);}.cls-3{fill:url(#未命名的渐变_17);}.cls-4{fill:url(#未命名的渐变_18-2);}.cls-5{fill:url(#未命名的渐变_17-2);}.cls-6{fill:#666;}</style><linearGradient gradientUnits="userSpaceOnUse" y2="24.99" x2="-0.36" y1="8.56" x1="28.09" id="未命名的渐变_18"><stop stop-color="#004180" offset="0"></stop><stop stop-color="#0058a2" offset="0.19"></stop><stop stop-color="#006fc2" offset="0.41"></stop><stop stop-color="#0080da" offset="0.63"></stop><stop stop-color="#008ae8" offset="0.83"></stop><stop stop-color="#008ded" offset="1"></stop></linearGradient><linearGradient gradientUnits="userSpaceOnUse" y2="10.85" x2="17.32" y1="18.5" x1="60.73" id="未命名的渐变_17"><stop stop-color="#0acffe" offset="0"></stop><stop stop-color="#3c73ff" offset="1"></stop></linearGradient><linearGradient xlink:href="#未命名的渐变_18" gradientTransform="translate(-52.27 -4.16) rotate(180)" y2="-40.07" x2="-112.18" y1="-56.5" x1="-83.73" id="未命名的渐变_18-2"></linearGradient><linearGradient xlink:href="#未命名的渐变_17" gradientTransform="translate(-52.27 -4.16) rotate(180)" y2="-54.21" x2="-94.51" y1="-46.55" x1="-51.09" id="未命名的渐变_17-2"></linearGradient></defs><g id="图层_2"><g id="图层_1-2"><path d="M76.69,32.12V8.72H83.4a3,3,0,0,1,3,3v3.14a22.34,22.34,0,0,0,3.24-7.21h.43a2.77,2.77,0,0,1,2.33,4.26l0,0h11.26v1.62H99.85v5.39h3.24v1.63H99.85v5.36h3.24v1.62H99.85v5.39h3.77v1.62H92.3v1.06H88V15.76a6.23,6.23,0,0,1-1.31.47l-.31-.58V35.09H79.66A3,3,0,0,1,76.69,32.12Zm5.39,1.35V10.31H81V33.47ZM95.55,18.94V13.55H92.3v5.39Zm0,7V20.57H92.3v5.36Zm0,7V27.55H92.3v5.39Zm0-21.54L94.46,7.63h2.06a3,3,0,0,1,2.86,2.15l.47,1.62Z" class="cls-1"></path><path d="M107.3,32.12v-11h9.26a3,3,0,0,1,3,3v11h-9.26A3,3,0,0,1,107.3,32.12ZM108.39,16V8.72h20.72a3,3,0,0,1,3,3v7.24H111.37A3,3,0,0,1,108.39,16Zm6.84,17.5V22.72H111.6V33.47Zm12.55-16.15v-7H112.69v7Zm-6.85,14.8v-11h9.24a3,3,0,0,1,3,3v11h-9.23A3,3,0,0,1,120.93,32.12Zm7.91,1.35V22.72h-3.6V33.47Z" class="cls-1"></path><path d="M137.38,10.64V9.25H148.7V7.63h2.68A1.62,1.62,0,0,1,153,9.25h8.34a3,3,0,0,1,3,3V13H160V10.87H141.68V13h-1.92A2.39,2.39,0,0,1,137.38,10.64Zm.53,3.44h25.85V15.7H137.91Zm0,18V24.87h22.87a3,3,0,0,1,3,3v7.24H140.89A3,3,0,0,1,137.91,32.12ZM139,20.49V17.1h20.72a3,3,0,0,1,3,3v3.39H142A3,3,0,0,1,139,20.49Zm9.7,8.68V26.49h-6.48v2.68Zm0,4.3V30.79h-6.48v2.68Zm9.69-11.62V18.72H143.31v3.13ZM153,26.49v2.68h6.45V26.49Zm0,4.3v2.68h6.45V30.79Z" class="cls-1"></path><path d="M167.47,25.4h4.91a23.75,23.75,0,0,0,.45-4.6V20h-4.3V18.42h4.3V13H168v-1.6h4.83V7.64h1.35a3,3,0,0,1,3,3v.78H182V13h-4.83v5.38h4.3V20h-4.3v.78a27.52,27.52,0,0,1-.36,4.6h5.72V27h-6.06a12.13,12.13,0,0,1-4.41,7.26,6.52,6.52,0,0,1-3,1.34l-.55-1.06A20.12,20.12,0,0,0,172,27h-4.56v-1.6Zm23.13,3.77c0,2.16-.69,4.68-1.76,5.39h.7a6.12,6.12,0,0,0,2.71-.67,4.85,4.85,0,0,0,2.68-4.72V22.72a7.31,7.31,0,0,0-1.54-4.3h0L194.61,12h0a3,3,0,0,0-3-3.27h-8.56V35.62h1.34a3,3,0,0,0,3-3V10.32h3.21L189,18.94h0a5.21,5.21,0,0,1,1.59,3.77Z" class="cls-1"></path><path d="M205.62,22.72l-3.16,12.37h-.57A3,3,0,0,1,199,31.4l2.2-8.68Zm0-8.64L203,8.16h-4.38l2.6,5.92Zm0,7L203,15.17h-4.38l2.6,5.93Zm6.46-6.46-1.63-5.92h-4.3l1.62,5.92Zm8.6,15.62c0,2.14-.83,4.64-1.91,5.36h.85A5.9,5.9,0,0,0,222.3,35,4.78,4.78,0,0,0,225,30.26v-14h-7V10.61a3,3,0,0,0-3-3H213.7v8.6h-7v17a2.38,2.38,0,0,0,2.38,2.37H211v-7h9.69ZM211,17.85h9.69v3.78H211Zm0,5.4h9.69V27H211Zm8.63-8.61,1.59-5.92h4.33l-1.62,5.92Z" class="cls-1"></path><path d="M244.31,22.16V17.85H240q-1.81,2.83-6.46,4.11a18.77,18.77,0,0,1-4.3.76l-.53-1.09a18.9,18.9,0,0,0,6.09-3.78h-2.05a3,3,0,0,1-3-3V12.49h7V10.31h-7V8.72h7V7.63h4.3V8.72h3.24V7.63h4.3V8.72h3.48a3,3,0,0,1,3,3v2.38h-6.46v2.15h5.92a1.63,1.63,0,0,1,1.63,1.62,3.82,3.82,0,0,1-2.71,3.78,7.36,7.36,0,0,1-2.69.53l-.53-1.06a3.68,3.68,0,0,0,1.59-3.25h-3.21v4.31Zm5.36,12.93-6.76-3.68q-3.49,4.22-13.69,4.21l-.53-1.06a36.6,36.6,0,0,0,7.94-3.15c2.6-1.62,3.9-3.63,3.88-6h1.4a2.55,2.55,0,0,1,2.49,3.21v0h.45l11.85,6.45Zm-19.36-7.28V22.72h21.78a3,3,0,0,1,3,3v5.1h-4.31V24.34H234.61v6.45h-1.32A3,3,0,0,1,230.31,27.81Zm3.74-13.73v2.15h2a3.84,3.84,0,0,0,.65-2.15Zm10.26,2.15V14.08h-3.24a7.12,7.12,0,0,1-.31,2.15Zm0-5.92h-3.24v2.18h3.24Zm6.45,0h-2.15v2.18h2.15Z" class="cls-1"></path><path d="M285.15,20.57h-9.7V25.4h10.23V27H275.45v6.45H279l1.34-5.39h.5a3,3,0,0,1,2.88,3.71l-.42,1.68h3.52v1.62H259.83V33.47h3.5l-.43-1.69a3,3,0,0,1,2.89-3.7h.5l1.34,5.39h3.52V27H260.92V25.4h10.23V20.57h-9.69V19.2a14.31,14.31,0,0,1-1.63.28l-.53-1.07A33.27,33.27,0,0,0,270,9.24a4.24,4.24,0,0,1,6.66,0,33.15,33.15,0,0,0,10.67,9.16l-.53,1.07a13.84,13.84,0,0,1-1.62-.28Zm-22.72-1.63h21.71A19.22,19.22,0,0,1,273.3,11.6,19.33,19.33,0,0,1,262.43,18.94Z" class="cls-1"></path><path d="M289.92,8.72h14.53v1.59H289.92Zm.53,24.53V20h10.49a3,3,0,0,1,3,3v7.28q0,3.36-2.16,4.69a4,4,0,0,1-2.15.67h-.48c.72-.72,1.28-3.22,1.28-5.36V21.63H294v14h-1.17A2.37,2.37,0,0,1,290.45,33.25ZM291,11.93h9.43a3,3,0,0,1,3,3v3.5H294a3,3,0,0,1-3-3ZM294.75,27h.34l-.34-4.3h1.93L297,27h.31l.36-4.3h1.93l-.36,4.3h.36v1.62h-.81v7h-3.24v-7h-.81Zm4.3-10.23V13.55h-3.77v3.24ZM305,24V10.87h4.13V7.63h1.15a3,3,0,0,1,3,3v.25h1.15a3,3,0,0,1,3,3V27h-4.13v6.45h1.14l-.36-4.3h.61a3,3,0,0,1,3,2.73l.3,3.72h-3.35l-.06-.53H304.45V33.47h4.66V27H308A3,3,0,0,1,305,24Zm4.13,1.36V12.49h-1V25.4Zm4.14-12.91V25.4h1V12.49Z" class="cls-1"></path><path d="M29.78,12.58S26.8,2.94,20,1.91a12,12,0,0,0-1.22-.12A34,34,0,0,0,11,5.49c-2.7,1.8-5.65,4.16-3.84,6.43.34.43,1,.65,1.48,1,1.11.93.37,2.4-2.16,3.41S2,18.35.8,20.75c-.08.17-.17.33-.24.5A6.6,6.6,0,0,0,0,24.57c.36,3.55,3,6.33,8.12,5.81,12.9-1.31,18.67-10.19,21.62-17.76C29.78,12.62,29.8,12.64,29.78,12.58Z" class="cls-2"></path><path d="M59,21.25c-.08-.17-.16-.33-.25-.5-1.23-2.4-3.23-3.41-5.68-4.38s-3.29-2.5-2.16-3.41c.49-.4,1.19-.65,1.47-1C54.33,9.41,50.86,7,48.14,5.23a35.94,35.94,0,0,0-9.06-4,34.63,34.63,0,0,0-18.6,0c-.33.09-.93.26-1.69.52A12,12,0,0,1,20,1.91c6.79,1,9.77,10.67,9.77,10.67a1.09,1.09,0,0,1,0,.17c3,7.54,8.74,16.33,21.57,17.63,5.12.52,7.76-2.26,8.12-5.81A6.6,6.6,0,0,0,59,21.25Z" class="cls-3"></path><path d="M29.77,48.31S32.76,58,39.55,59a11.8,11.8,0,0,0,1.21.12,33.78,33.78,0,0,0,7.78-3.7c2.71-1.8,5.66-4.15,3.85-6.43-.34-.43-1-.65-1.48-1-1.12-.92-.37-2.4,2.16-3.4s4.45-2,5.68-4.39c.09-.16.17-.33.25-.5a6.58,6.58,0,0,0,.51-3.31c-.36-3.56-3-6.34-8.12-5.82C38.5,31.82,32.73,40.7,29.77,48.27,29.77,48.27,29.76,48.25,29.77,48.31Z" class="cls-4"></path><path d="M.55,39.64c.07.17.16.34.24.5C2,42.54,4,43.55,6.48,44.53S9.77,47,8.64,47.93c-.5.4-1.19.65-1.47,1-1.94,2.53,1.53,4.93,4.25,6.71a36.07,36.07,0,0,0,9,4,34.57,34.57,0,0,0,18.61,0c.33-.09.92-.26,1.68-.52A11.8,11.8,0,0,1,39.55,59c-6.79-1-9.78-10.67-9.78-10.67a1.09,1.09,0,0,0-.05-.17C26.75,40.6,21,31.81,8.15,30.51,3,30,.4,32.77,0,36.33A6.69,6.69,0,0,0,.55,39.64Z" class="cls-5"></path><polygon points="81.97 56.21 76.76 44.57 78.04 44.57 82.71 55.21 87.39 44.57 88.66 44.57 83.44 56.21 81.97 56.21" class="cls-6"></polygon><path d="M90,45.89V44.57h1.11v1.32Zm0,10.32V47.67h1.11v8.54Z" class="cls-6"></path><path d="M93.58,59.27V47.67H94.7v1.5a4.14,4.14,0,0,1,1.47-1.29,4.25,4.25,0,0,1,1.92-.41,4.44,4.44,0,0,1,3.28,1.24,4.8,4.8,0,0,1,0,6.47,4.45,4.45,0,0,1-3.27,1.24,4,4,0,0,1-3.39-1.68v4.53Zm1.12-7.33a3.43,3.43,0,0,0,.91,2.49,3.42,3.42,0,1,0,0-5A3.44,3.44,0,0,0,94.7,51.94Z" class="cls-6"></path><polygon points="104.62 56.21 104.62 44.57 113.23 44.57 113.23 45.67 105.79 45.67 105.79 49.69 112.42 49.69 112.42 50.83 105.79 50.83 105.79 56.21 104.62 56.21" class="cls-6"></polygon><path d="M122.88,47.67v8.54H121.8V54.63a4.21,4.21,0,0,1-1.54,1.31,4.5,4.5,0,0,1-2,.45,3.43,3.43,0,0,1-2.48-.78,3.21,3.21,0,0,1-.8-2.42V47.67h1.11v4.8a3.59,3.59,0,0,0,.53,2.26,2.27,2.27,0,0,0,1.83.64,3.56,3.56,0,0,0,2.41-.8,2.55,2.55,0,0,0,1-2V47.67Z" class="cls-6"></path><path d="M125.24,56.21V44.57h1.12V49.1a3.92,3.92,0,0,1,3.38-1.67A4.49,4.49,0,0,1,133,48.66a4.81,4.81,0,0,1,0,6.49,4.46,4.46,0,0,1-3.28,1.24,4.19,4.19,0,0,1-1.93-.42,4.06,4.06,0,0,1-1.45-1.28v1.52Zm1.12-4.31a3.4,3.4,0,0,0,.91,2.49,3.72,3.72,0,0,0,4.92,0,3.83,3.83,0,0,0,0-5,3.3,3.3,0,0,0-2.46-.94,3.26,3.26,0,0,0-2.46.94A3.43,3.43,0,0,0,126.36,51.9Z" class="cls-6"></path><path d="M135.57,51.94a4.33,4.33,0,1,1,1.26,3.31A4.47,4.47,0,0,1,135.57,51.94Zm1.14,0a3.47,3.47,0,0,0,.93,2.54,3.75,3.75,0,0,0,5,0,3.92,3.92,0,0,0,0-5.07,3.77,3.77,0,0,0-5,0A3.47,3.47,0,0,0,136.71,51.94Z" class="cls-6"></path><path d="M146.53,56.21V47.67h1.08v1.57a4.18,4.18,0,0,1,1.53-1.31,4.63,4.63,0,0,1,2-.44,3.44,3.44,0,0,1,2.49.78,3.19,3.19,0,0,1,.8,2.41v5.53h-1.11v-4.8a3.67,3.67,0,0,0-.53-2.27,2.31,2.31,0,0,0-1.84-.63,3.6,3.6,0,0,0-2.4.79,2.56,2.56,0,0,0-1,2.05v4.86Z" class="cls-6"></path><path d="M172,48.38a3.64,3.64,0,0,0-1.44-2.21,5.51,5.51,0,0,0-6.4.56,5,5,0,0,0-1.31,3.66A5.07,5.07,0,0,0,164.1,54a4.48,4.48,0,0,0,3.42,1.35,4.82,4.82,0,0,0,3-.95,4.36,4.36,0,0,0,1.59-2.58h1.24a5.54,5.54,0,0,1-2,3.42,6,6,0,0,1-3.84,1.25,5.68,5.68,0,0,1-4.29-1.66,6.14,6.14,0,0,1-1.61-4.46,5.65,5.65,0,0,1,6.11-6.13,5.88,5.88,0,0,1,3.68,1.1,4.43,4.43,0,0,1,1.72,3Z" class="cls-6"></path><path d="M174.56,51.94a4.33,4.33,0,1,1,1.26,3.31A4.47,4.47,0,0,1,174.56,51.94Zm1.14,0a3.47,3.47,0,0,0,.93,2.54,3.75,3.75,0,0,0,5,0,3.92,3.92,0,0,0,0-5.07,3.77,3.77,0,0,0-5,0A3.47,3.47,0,0,0,175.7,51.94Z" class="cls-6"></path><path d="M185.52,56.21V47.67h1.07v1.57a4.26,4.26,0,0,1,1.53-1.31,4.68,4.68,0,0,1,2-.44,3.47,3.47,0,0,1,2.49.78,3.23,3.23,0,0,1,.8,2.41v5.53h-1.11v-4.8a3.59,3.59,0,0,0-.54-2.27,2.3,2.3,0,0,0-1.83-.63,3.61,3.61,0,0,0-2.41.79,2.55,2.55,0,0,0-.94,2.05v4.86Z" class="cls-6"></path><path d="M195.07,53.52h1.13a1.91,1.91,0,0,0,.86,1.43,3.9,3.9,0,0,0,2.11.49,4.71,4.71,0,0,0,2.19-.41,1.27,1.27,0,0,0,.75-1.17,1,1,0,0,0-.37-.85,2.57,2.57,0,0,0-1.22-.43L198,52.21a4.16,4.16,0,0,1-2.09-.76,2,2,0,0,1-.64-1.58,2.08,2.08,0,0,1,1-1.83,5,5,0,0,1,2.79-.68,4.7,4.7,0,0,1,2.8.74,2.41,2.41,0,0,1,1,2h-1.11a1.75,1.75,0,0,0-.85-1.3,4,4,0,0,0-2-.43,3.73,3.73,0,0,0-1.83.37,1.16,1.16,0,0,0-.65,1,1,1,0,0,0,.42.85,4,4,0,0,0,1.54.46l2.19.34a4,4,0,0,1,2,.75,1.9,1.9,0,0,1,.62,1.53,2.34,2.34,0,0,1-1.07,2.07,5.79,5.79,0,0,1-3.15.7,4.65,4.65,0,0,1-2.84-.77A2.9,2.9,0,0,1,195.07,53.52Z" class="cls-6"></path><path d="M212.86,47.67v8.54h-1.08V54.63a4.21,4.21,0,0,1-1.54,1.31,4.5,4.5,0,0,1-2,.45,3.43,3.43,0,0,1-2.48-.78,3.21,3.21,0,0,1-.8-2.42V47.67H206v4.8a3.65,3.65,0,0,0,.53,2.26,2.28,2.28,0,0,0,1.84.64,3.55,3.55,0,0,0,2.4-.8,2.55,2.55,0,0,0,.95-2V47.67Z" class="cls-6"></path><path d="M215.19,56.21V47.67h1.07v1.57a4.26,4.26,0,0,1,1.53-1.31,4.64,4.64,0,0,1,2.05-.44,4.1,4.1,0,0,1,2,.43A2.62,2.62,0,0,1,223,49.24a4.1,4.1,0,0,1,1.53-1.31,4.63,4.63,0,0,1,2-.44,3.44,3.44,0,0,1,2.49.78,3.23,3.23,0,0,1,.8,2.41v5.53h-1.13v-4.8a3.58,3.58,0,0,0-.53-2.27,2.26,2.26,0,0,0-1.82-.63,3.62,3.62,0,0,0-2.41.79,2.55,2.55,0,0,0-.94,2.05v4.86h-1v-4.8a3.6,3.6,0,0,0-.53-2.27,2.3,2.3,0,0,0-1.83-.63,3.61,3.61,0,0,0-2.41.79,2.56,2.56,0,0,0-1,2.05v4.86Z" class="cls-6"></path><path d="M240.43,53.49A3.76,3.76,0,0,1,239,55.7a4.6,4.6,0,0,1-2.74.81,4.71,4.71,0,1,1,4.54-4.59v.26h-7.9a3.52,3.52,0,0,0,1,2.39,3.27,3.27,0,0,0,2.39.85,3.3,3.3,0,0,0,1.86-.51,2.68,2.68,0,0,0,1.09-1.42Zm-7.53-2.25h6.58a2.82,2.82,0,0,0-1-2,3.34,3.34,0,0,0-2.27-.77,3.39,3.39,0,0,0-2.31.77A2.88,2.88,0,0,0,232.9,51.24Z" class="cls-6"></path><path d="M243.71,56.21h-1.13V47.67h1.13v1.42a2.87,2.87,0,0,1,1-1.27,2.66,2.66,0,0,1,1.51-.46,2.57,2.57,0,0,1,.55.06,3.13,3.13,0,0,1,.57.18v1.09a4,4,0,0,0-.52-.13,2.84,2.84,0,0,0-2.14.5,3.29,3.29,0,0,0-1,1.62Z" class="cls-6"></path><polygon points="253.96 56.21 253.96 44.57 262.56 44.57 262.56 45.67 255.12 45.67 255.12 49.69 261.75 49.69 261.75 50.83 255.12 50.83 255.12 56.21 253.96 56.21" class="cls-6"></polygon><path d="M264.35,45.89V44.57h1.11v1.32Zm0,10.32V47.67h1.11v8.54Z" class="cls-6"></path><path d="M267.9,56.21V47.67H269v1.57a4.15,4.15,0,0,1,1.52-1.31,4.68,4.68,0,0,1,2.05-.44,3.47,3.47,0,0,1,2.49.78,3.23,3.23,0,0,1,.8,2.41v5.53h-1.11v-4.8a3.59,3.59,0,0,0-.54-2.27,2.3,2.3,0,0,0-1.83-.63,3.61,3.61,0,0,0-2.41.79,2.55,2.55,0,0,0-.94,2.05v4.86Z" class="cls-6"></path><path d="M286.89,55.13v1l-.49.12-.45,0a1.05,1.05,0,0,1-.83-.3,1.88,1.88,0,0,1-.32-1.05,4.27,4.27,0,0,1-1.56,1.16,5.49,5.49,0,0,1-2.1.36,3.74,3.74,0,0,1-2.39-.67,2.27,2.27,0,0,1-.84-1.89,2.32,2.32,0,0,1,.22-1,2.21,2.21,0,0,1,.68-.79,2.87,2.87,0,0,1,1-.44,17.16,17.16,0,0,1,2.07-.37l.88-.11c1.39-.17,2.08-.57,2.08-1.21a1.17,1.17,0,0,0-.6-1.07,3.48,3.48,0,0,0-1.77-.37,4.1,4.1,0,0,0-2.22.5,1.82,1.82,0,0,0-.82,1.49h-1.11a2.83,2.83,0,0,1,1.1-2.25,4.81,4.81,0,0,1,2.91-.75,6.6,6.6,0,0,1,2,.24,2.53,2.53,0,0,1,1.19.79,2,2,0,0,1,.37.76,5.24,5.24,0,0,1,.12,1.32v3.78a1.45,1.45,0,0,0,.1.71.41.41,0,0,0,.36.15l.24,0Zm-2.08-3.55a3.54,3.54,0,0,1-.92.32c-.41.1-1.09.22-2,.36a7,7,0,0,0-2.34.62,1.16,1.16,0,0,0-.48,1,1.26,1.26,0,0,0,.59,1.1,2.78,2.78,0,0,0,1.62.42,4.16,4.16,0,0,0,2.56-.74,2.31,2.31,0,0,0,1-1.92V51.58Z" class="cls-6"></path><path d="M288.6,56.21V47.67h1.08v1.57a4.26,4.26,0,0,1,1.53-1.31,4.63,4.63,0,0,1,2-.44,3.44,3.44,0,0,1,2.49.78,3.19,3.19,0,0,1,.8,2.41v5.53h-1.11v-4.8a3.6,3.6,0,0,0-.53-2.27,2.3,2.3,0,0,0-1.83-.63,3.61,3.61,0,0,0-2.41.79,2.56,2.56,0,0,0-1,2.05v4.86Z" class="cls-6"></path><path d="M306,53.1h1.14a3.59,3.59,0,0,1-1.35,2.46,4.3,4.3,0,0,1-2.83.95,4.58,4.58,0,1,1,0-9.15,4.41,4.41,0,0,1,2.75.87A3.42,3.42,0,0,1,307,50.49h-1.16A2.8,2.8,0,0,0,304.78,49a3.22,3.22,0,0,0-1.9-.53,3.26,3.26,0,0,0-2.45,1,3.51,3.51,0,0,0-.94,2.55,3.47,3.47,0,0,0,.93,2.54,3.34,3.34,0,0,0,2.5.94,3.2,3.2,0,0,0,2-.63A2.8,2.8,0,0,0,306,53.1Z" class="cls-6"></path><path d="M317,53.49a3.71,3.71,0,0,1-1.47,2.21,4.6,4.6,0,0,1-2.74.81,4.58,4.58,0,1,1,0-9.15,4.42,4.42,0,0,1,3.29,1.25,4.47,4.47,0,0,1,1.25,3.31v.26h-7.89a3.47,3.47,0,0,0,1,2.39,3.28,3.28,0,0,0,2.39.85,3.33,3.33,0,0,0,1.87-.51,2.73,2.73,0,0,0,1.09-1.42Zm-7.53-2.25H316a2.82,2.82,0,0,0-1-2,3.32,3.32,0,0,0-2.27-.77,3.41,3.41,0,0,0-2.31.77A2.88,2.88,0,0,0,309.44,51.24Z" class="cls-6"></path></g></g></svg>