<svg xmlns="http://www.w3.org/2000/svg" fill="none" viewBox="0 0 171 28" height="28" width="171">
<g clip-path="url(#clip0_5849_558)">
<path fill="#1F80F0" d="M72.0054 3.67471H81.1662V26.996H85.5062V3.67471H95.0559V0.379639H72.0054V3.67471Z"></path>
<path fill="#1F80F0" d="M165.882 0.379639V11.9546H152.938V0.379639H148.597V26.996H152.938V15.2509H165.882V26.996H170.18V0.379639H165.882Z"></path>
<path fill="#1F80F0" d="M97.2136 11.6722V15.7022C97.2136 21.9394 102.348 26.996 108.681 26.996H118.471V23.51H108.778C105.038 23.51 102.006 20.5239 102.006 16.8411V15.4569H118.471V11.9199H102.006V10.5357C102.006 6.85289 105.038 3.86684 108.778 3.86684H118.471V0.379639H108.681C102.348 0.379639 97.2136 5.43625 97.2136 11.6734V11.6722Z"></path>
<path fill="#1F80F0" d="M122.615 11.6722V15.7022C122.615 21.9394 127.749 26.996 134.082 26.996H143.872V23.51H134.179C130.439 23.51 127.407 20.5239 127.407 16.8411V10.5345C127.407 6.85173 130.439 3.86568 134.179 3.86568H143.872V0.379639H134.082C127.749 0.379639 122.615 5.43625 122.615 11.6734V11.6722Z"></path>
<path fill="#1F80F0" d="M29.7826 0.875025L49.4039 18.4522C49.5261 18.561 49.5954 18.7161 49.5954 18.8781V26.6349C49.5954 27.1349 48.9937 27.3965 48.6177 27.0608L28.9976 9.48249C28.8754 9.3737 28.806 9.21861 28.806 9.05657V1.30094C28.806 0.800952 29.4077 0.539383 29.7838 0.875025H29.7826Z"></path>
<path fill="#1F80F0" d="M28.806 14.8076V27.3594C28.806 27.6766 29.0669 27.9347 29.3901 27.9347H43.0413L28.806 14.8076Z"></path>
<path fill="#1F80F0" d="M25.291 8.74519V0.567118C25.291 0.253467 25.0336 0 24.7151 0H14.4297C14.2135 0 14.0149 0.119211 13.9173 0.309022L0.0886772 27.0272C-0.106407 27.4045 0.172117 27.8513 0.601067 27.8513H8.76052C8.97911 27.8513 9.1789 27.7298 9.27526 27.5376L12.3284 21.5019C12.426 21.3098 12.6258 21.1882 12.8432 21.1882H24.7139C25.0324 21.1882 25.2898 20.9348 25.2898 20.6211V15.3747C25.2898 15.0622 25.0324 14.8087 24.7151 14.8076L16.6509 14.7891C16.2243 14.7891 15.9469 14.3458 16.1373 13.9696L18.3338 9.62712C18.4313 9.43499 18.6311 9.31347 18.8485 9.31347H24.7139C25.0324 9.31347 25.2898 9.06 25.2898 8.74635L25.291 8.74519Z"></path>
<path fill="#1F80F0" d="M49.5954 13.127V0.574062C49.5954 0.256939 49.3345 0 49.0125 0H35.3602L49.5954 13.127Z"></path>
<path fill="#1F80F0" d="M60.13 0.263844L53.0611 13.0738C53.027 13.1363 53.0082 13.2057 53.0082 13.2763V27.4682C53.0082 27.7031 53.201 27.8929 53.4395 27.8929H62.0326C62.2712 27.8929 62.4639 27.7031 62.4639 27.4682V13.2763C62.4639 13.2057 62.4816 13.1363 62.5168 13.0738L69.3647 0.668928C69.521 0.386526 69.313 0.041626 68.9863 0.041626H60.5096C60.3521 0.041626 60.2064 0.127272 60.1312 0.263844H60.13Z"></path>
</g>
<defs>
<clipPath id="clip0_5849_558">
<rect transform="translate(0.025238)" fill="white" height="27.9346" width="170.155"></rect>
</clipPath>
</defs>
</svg>
